<svg width="49" height="49" viewBox="0 0 49 49" fill="none" xmlns="http://www.w3.org/2000/svg">
<path fill-rule="evenodd" clip-rule="evenodd" d="M43.0456 29.9703C43.8716 30.0323 44.4896 30.7543 44.4276 31.5803L44.0476 36.5983C43.7336 40.7383 40.2396 43.9803 36.0896 43.9803H12.8896C8.7396 43.9803 5.2456 40.7383 4.9316 36.5983L4.5516 31.5803C4.4896 30.7543 5.1096 30.0323 5.9356 29.9703C6.7656 29.9403 7.4816 30.5263 7.5456 31.3543L7.9236 36.3703C8.1196 38.9543 10.2996 40.9803 12.8896 40.9803H36.0896C38.6796 40.9803 40.8616 38.9543 41.0556 36.3703L41.4356 31.3543C41.4996 30.5263 42.2336 29.9383 43.0456 29.9703ZM27.07 4.5001C30.0759 4.5001 32.5661 6.75263 32.9412 9.65815L36.8802 9.6599C41.0722 9.6599 44.4802 13.0779 44.4802 17.2819V24.1599C44.4802 24.6939 44.1962 25.1859 43.7382 25.4539C38.8016 28.3449 32.548 30.0311 25.9893 30.2561L25.99 33.8533C25.99 34.6813 25.318 35.3533 24.49 35.3533C23.662 35.3533 22.99 34.6813 22.99 33.8533L22.9887 30.2566C16.4366 30.0337 10.1825 28.3471 5.2422 25.4539C4.7822 25.1859 4.5002 24.6939 4.5002 24.1599V17.2619C4.5002 13.0699 7.9182 9.6599 12.1202 9.6599L16.0388 9.65815C16.4139 6.75263 18.9041 4.5001 21.91 4.5001H27.07ZM36.8802 12.6599H12.1202C9.5722 12.6599 7.5002 14.7239 7.5002 17.2619V23.2859C12.2476 25.8654 18.2327 27.2792 24.4622 27.2819L24.49 27.2793L24.5122 27.2801L25.4645 27.2702C31.3561 27.1298 36.9764 25.732 41.4802 23.2859V17.2819C41.4802 14.7319 39.4182 12.6599 36.8802 12.6599ZM27.07 7.5001H21.91C20.5633 7.5001 19.4265 8.41665 19.0907 9.65866H29.8893C29.5535 8.41665 28.4167 7.5001 27.07 7.5001Z" fill="black"/>
</svg>
