<svg width="49" height="49" viewBox="0 0 49 49" fill="none" xmlns="http://www.w3.org/2000/svg">
<path d="M25.0486 8.5C25.808 8.5 26.4356 9.06431 26.5349 9.79646L26.5486 10L26.5474 36.368L36.0344 26.842C36.619 26.255 37.5687 26.2529 38.1558 26.8375C38.6894 27.3688 38.7396 28.2021 38.3052 28.7902L38.1603 28.9588L26.1123 41.0588C26.0353 41.1362 25.9519 41.2034 25.8638 41.2604C25.8373 41.2765 25.8102 41.2929 25.7825 41.3085C25.7588 41.3228 25.7342 41.3357 25.7093 41.3479C25.6731 41.3648 25.6357 41.3814 25.5975 41.3964C25.5681 41.4086 25.5394 41.4188 25.5106 41.4281C25.4748 41.4391 25.4366 41.4499 25.3979 41.4591C25.3709 41.466 25.3449 41.4714 25.3188 41.4762C25.2799 41.4828 25.2397 41.4885 25.199 41.4926C25.168 41.4961 25.1372 41.4982 25.1064 41.4993C25.0878 41.4996 25.0682 41.5 25.0486 41.5L24.9905 41.4992C24.961 41.4981 24.9316 41.4961 24.9023 41.4932L25.0486 41.5C24.9539 41.5 24.8613 41.4912 24.7715 41.4745C24.7501 41.4706 24.7281 41.4659 24.7061 41.4608C24.661 41.4502 24.6175 41.4378 24.5749 41.4237C24.5537 41.4167 24.5311 41.4086 24.5086 41.3999C24.4635 41.3824 24.4204 41.3634 24.3785 41.3424C24.3588 41.3327 24.3382 41.3217 24.3178 41.3103C24.2845 41.2916 24.2528 41.2723 24.2219 41.2519C24.2001 41.2374 24.1774 41.2215 24.155 41.2048L24.1377 41.1919C24.0849 41.1514 24.0349 41.1076 23.9879 41.0607L23.9865 41.0589L11.9365 28.9589C11.352 28.3719 11.3539 27.4221 11.9409 26.8375C12.4746 26.3061 13.308 26.2594 13.8943 26.6964L14.0622 26.8419L23.5474 36.364L23.5486 10C23.5486 9.17157 24.2202 8.5 25.0486 8.5Z" fill="black"/>
</svg>
