<svg width="49" height="49" viewBox="0 0 49 49" fill="none" xmlns="http://www.w3.org/2000/svg">
<path d="M40.5 25.0486C40.5 25.808 39.9357 26.4356 39.2035 26.5349L39 26.5486L12.632 26.5474L22.158 36.0345C22.745 36.619 22.7471 37.5687 22.1625 38.1558C21.6312 38.6895 20.7979 38.7397 20.2098 38.3052L20.0412 38.1603L7.94123 26.1123C7.86385 26.0353 7.79663 25.9519 7.73959 25.8638C7.72348 25.8373 7.70708 25.8102 7.69153 25.7826C7.67723 25.7588 7.6643 25.7342 7.65211 25.7093C7.63518 25.6731 7.61863 25.6357 7.60361 25.5975C7.59141 25.5681 7.58121 25.5394 7.57192 25.5106C7.56087 25.4748 7.55013 25.4367 7.54089 25.3979C7.53403 25.3709 7.52859 25.3449 7.52385 25.3188C7.51718 25.2799 7.5115 25.2397 7.50745 25.199C7.50395 25.168 7.50184 25.1372 7.50068 25.1064C7.50038 25.0878 7.5 25.0682 7.5 25.0486L7.50075 24.9905C7.5019 24.9611 7.50391 24.9316 7.50679 24.9023L7.5 25.0486C7.5 24.9539 7.50877 24.8613 7.52554 24.7715C7.52942 24.7501 7.53406 24.7281 7.53919 24.7062C7.54984 24.661 7.56216 24.6175 7.57634 24.5749C7.5833 24.5537 7.5914 24.5311 7.60007 24.5086C7.6176 24.4635 7.63665 24.4205 7.65761 24.3785C7.66735 24.3588 7.67825 24.3382 7.68967 24.3178C7.70842 24.2845 7.72773 24.2528 7.74815 24.2219C7.76255 24.2001 7.77851 24.1774 7.79517 24.155L7.80815 24.1377C7.84856 24.0849 7.8924 24.0349 7.93934 23.9879L7.94114 23.9865L20.0411 11.9365C20.6281 11.352 21.5779 11.3539 22.1625 11.9409C22.6939 12.4746 22.7406 13.308 22.3036 13.8943L22.1581 14.0623L12.636 23.5474L39 23.5486C39.8284 23.5486 40.5 24.2202 40.5 25.0486Z" fill="black"/>
</svg>
