<svg width="49" height="49" viewBox="0 0 49 49" fill="none" xmlns="http://www.w3.org/2000/svg">
<path d="M8.5 23.9514C8.5 23.192 9.06431 22.5644 9.79646 22.4651L10 22.4514L36.368 22.4526L26.842 12.9655C26.255 12.381 26.2529 11.4313 26.8375 10.8442C27.3688 10.3105 28.2021 10.2603 28.7902 10.6948L28.9588 10.8397L41.0588 22.8877C41.1362 22.9647 41.2034 23.0481 41.2604 23.1362C41.2765 23.1627 41.2929 23.1898 41.3085 23.2174C41.3228 23.2412 41.3357 23.2658 41.3479 23.2907C41.3648 23.3269 41.3814 23.3643 41.3964 23.4025C41.4086 23.4319 41.4188 23.4606 41.4281 23.4894C41.4391 23.5252 41.4499 23.5633 41.4591 23.6021C41.466 23.6291 41.4714 23.6551 41.4762 23.6812C41.4828 23.7201 41.4885 23.7603 41.4926 23.801C41.4961 23.832 41.4982 23.8628 41.4993 23.8936C41.4996 23.9122 41.5 23.9318 41.5 23.9514L41.4992 24.0095C41.4981 24.0389 41.4961 24.0684 41.4932 24.0977L41.5 23.9514C41.5 24.0461 41.4912 24.1387 41.4745 24.2285C41.4706 24.2499 41.4659 24.2719 41.4608 24.2938C41.4502 24.339 41.4378 24.3825 41.4237 24.4251C41.4167 24.4463 41.4086 24.4689 41.3999 24.4914C41.3824 24.5365 41.3634 24.5795 41.3424 24.6215C41.3327 24.6412 41.3217 24.6618 41.3103 24.6822C41.2916 24.7155 41.2723 24.7472 41.2519 24.7781C41.2374 24.7999 41.2215 24.8226 41.2048 24.845L41.1919 24.8623C41.1514 24.9151 41.1076 24.9651 41.0607 25.0121L41.0589 25.0135L28.9589 37.0635C28.3719 37.648 27.4221 37.6461 26.8375 37.0591C26.3061 36.5254 26.2594 35.692 26.6964 35.1057L26.8419 34.9377L36.364 25.4526L10 25.4514C9.17157 25.4514 8.5 24.7798 8.5 23.9514Z" fill="black"/>
</svg>
